REM MD5 007ef5c86e20b5f250dba0d2d19633be
FILE "Shutokou Battle R (Japan) (Demo).bin" BINARY
  TRACK 01 MODE2/2352
    INDEX 01 00:00:00
  TRACK 02 AUDIO
    INDEX 00 31:43:50
    INDEX 01 31:45:50
  TRACK 03 AUDIO
    INDEX 00 35:59:13
    INDEX 01 36:01:13
REM LEADOUT 40:14:51
